<svg width="38" height="29" viewBox="0 0 38 29" fill="none" xmlns="http://www.w3.org/2000/svg">
<path d="M20.4905 12.7317C20.4905 12.6722 20.5153 12.5865 20.6231 12.4954C20.7336 12.4021 20.923 12.3171 21.1791 12.3171C21.3732 12.3171 21.5406 12.3887 21.6501 12.4843C21.7576 12.5783 21.7853 12.6694 21.7853 12.7317C21.7853 12.794 21.7576 12.8851 21.6501 12.9791C21.5406 13.0748 21.3732 13.1463 21.1791 13.1463C20.923 13.1463 20.7336 13.0613 20.6231 12.968C20.5153 12.877 20.4905 12.7912 20.4905 12.7317ZM8.95874 12.7317C8.95874 12.6722 8.9835 12.5865 9.09131 12.4954C9.20186 12.4021 9.39121 12.3171 9.64732 12.3171C9.84146 12.3171 10.0088 12.3887 10.1183 12.4843C10.2259 12.5783 10.2535 12.6694 10.2535 12.7317C10.2535 12.794 10.2259 12.8851 10.1183 12.9791C10.0088 13.0748 9.84146 13.1463 9.64732 13.1463C9.39121 13.1463 9.20186 13.0613 9.09131 12.968C8.9835 12.877 8.95874 12.7912 8.95874 12.7317Z" fill="white" stroke="white" stroke-width="2"/>
<path d="M27.5764 26.5276C23.9499 27.5449 20.0412 27.1851 16.8206 25.6741L17.5714 25.1643L19.8362 26.1255L19.8445 26.129L19.9219 26.1618L20.0037 26.1813C22.4618 26.766 25.1154 26.7026 27.6094 25.9164L27.6259 25.9112L27.6421 25.9055L27.8374 25.8364L31.5843 26.9072L32.8742 27.2758L32.859 25.9344L32.8222 22.6868L32.8733 22.6325C32.8739 22.632 32.8744 22.6314 32.875 22.6308C36.3842 18.9384 36.5813 13.6014 33.2402 9.70896C32.4252 8.74747 31.469 7.957 30.4349 7.32737L30.4212 7.31905L30.4073 7.31116L30.3824 7.29712L28.0606 5.98344V5.59335C30.4353 6.34938 32.5511 7.67348 34.119 9.49872C37.4914 13.4397 37.4057 18.6876 34.0822 22.5167L33.8374 22.7988V23.1722V27.8705C33.834 27.8772 33.8249 27.8903 33.803 27.9089C33.7527 27.9516 33.6539 28 33.5137 28C33.4745 28 33.4262 27.9943 33.3647 27.9783C33.3633 27.978 33.3619 27.9776 33.3605 27.9772L28.113 26.5265L27.8446 26.4523L27.5764 26.5276ZM19.9746 24.2373L17.5209 24.8769L14.9664 24.7572C13.623 24.6942 12.2731 24.4688 10.9682 24.0755L10.6959 23.9934L10.4212 24.0669L5.18422 25.4676L5.18398 25.4677C5.06086 25.5007 4.93443 25.4865 4.83844 25.4441C4.74124 25.4013 4.72199 25.3537 4.72184 25.3533L4.72168 25.3529L4.68866 20.7076L4.68594 20.3247L4.42816 20.0415C0.701762 15.9483 0.548288 10.235 4.1999 5.95335C8.79963 0.607411 17.7526 -0.628259 24.1363 3.31013L24.1387 3.31165C24.9741 3.82371 25.7176 4.39628 26.3745 5.01568L28.0606 6.60562V6.59969L28.9828 8.58822C30.6539 12.1913 30.2008 16.4176 27.294 19.8183C25.4446 21.969 22.8592 23.4853 19.9746 24.2373ZM33.8392 27.8656C33.8393 27.8657 33.8391 27.867 33.8379 27.8694C33.8384 27.8668 33.839 27.8655 33.8392 27.8656ZM10.9253 23.4831L10.935 23.4865L10.9448 23.4898C16.4338 25.3045 22.8051 23.8118 26.4128 19.6109L26.4137 19.6098C30.8045 14.4825 29.3851 7.30639 23.449 3.6442L23.4474 3.6432C17.6081 0.0561178 9.41241 1.11974 5.08124 6.16065L5.0798 6.16233C1.45906 10.3953 1.728 16.1975 5.5755 20.1807L5.58955 20.1953L5.60419 20.2093L5.63052 20.2344L5.66711 23.4644L5.68167 24.7497L6.92389 24.4195L10.7204 23.4106L10.9253 23.4831Z" fill="white" stroke="white" stroke-width="2"/>
<path d="M14.7246 12.7317C14.7246 12.6722 14.7494 12.5865 14.8572 12.4954C14.9677 12.4021 15.1571 12.3171 15.4132 12.3171C15.6073 12.3171 15.7747 12.3887 15.8842 12.4843C15.9917 12.5783 16.0194 12.6694 16.0194 12.7317C16.0194 12.794 15.9917 12.8851 15.8842 12.9791C15.7747 13.0748 15.6073 13.1463 15.4132 13.1463C15.1571 13.1463 14.9677 13.0613 14.8572 12.968C14.7494 12.877 14.7246 12.7912 14.7246 12.7317Z" fill="white" stroke="white" stroke-width="2"/>
</svg>
