<svg width="206" height="193" viewBox="0 0 206 193" fill="none" xmlns="http://www.w3.org/2000/svg">
<path d="M42.9166 24.125H154.5C161.329 24.125 167.879 26.6667 172.708 31.191C177.537 35.7154 180.25 41.8517 180.25 48.25V152.792C180.25 159.19 177.537 165.326 172.708 169.851C167.879 174.375 161.329 176.917 154.5 176.917H42.9166C36.0873 176.917 29.5377 174.375 24.7086 169.851C19.8796 165.326 17.1666 159.19 17.1666 152.792V48.25C17.1666 41.8517 19.8796 35.7154 24.7086 31.191C29.5377 26.6667 36.0873 24.125 42.9166 24.125ZM42.9166 32.1667C38.3637 32.1667 33.9973 33.8612 30.778 36.8774C27.5586 39.8936 25.75 43.9844 25.75 48.25V141.453L62.5725 106.874L84.0308 126.978L126.947 86.7696L171.667 128.667V48.25C171.667 43.9844 169.858 39.8936 166.639 36.8774C163.419 33.8612 159.053 32.1667 154.5 32.1667H42.9166ZM84.0308 138.397L62.5725 118.293L25.75 152.792C25.75 157.057 27.5586 161.148 30.778 164.164C33.9973 167.181 38.3637 168.875 42.9166 168.875H154.5C159.053 168.875 163.419 167.181 166.639 164.164C169.858 161.148 171.667 157.057 171.667 152.792V140.005L126.947 98.1888L84.0308 138.397ZM64.375 48.25C70.0661 48.25 75.5241 50.3681 79.5483 54.1384C83.5725 57.9086 85.8333 63.0222 85.8333 68.3542C85.8333 73.6861 83.5725 78.7997 79.5483 82.57C75.5241 86.3402 70.0661 88.4583 64.375 88.4583C58.6839 88.4583 53.2258 86.3402 49.2016 82.57C45.1774 78.7997 42.9166 73.6861 42.9166 68.3542C42.9166 63.0222 45.1774 57.9086 49.2016 54.1384C53.2258 50.3681 58.6839 48.25 64.375 48.25ZM64.375 56.2917C60.9603 56.2917 57.6855 57.5625 55.271 59.8247C52.8564 62.0868 51.5 65.155 51.5 68.3542C51.5 71.5533 52.8564 74.6215 55.271 76.8836C57.6855 79.1458 60.9603 80.4167 64.375 80.4167C67.7896 80.4167 71.0644 79.1458 73.479 76.8836C75.8935 74.6215 77.25 71.5533 77.25 68.3542C77.25 65.155 75.8935 62.0868 73.479 59.8247C71.0644 57.5625 67.7896 56.2917 64.375 56.2917Z" fill="white"/>
</svg>
