<svg width="34" height="32" viewBox="0 0 34 32" fill="none" xmlns="http://www.w3.org/2000/svg">
<path d="M13.4583 5.33333C15.9005 5.33333 18.2427 6.24642 19.9696 7.87174C21.6965 9.49705 22.6667 11.7015 22.6667 14C22.6667 16.16 21.8308 18.1333 20.4425 19.64L28.4467 27.1733L27.4408 28.12L19.4367 20.5867C17.7725 21.9309 15.6513 22.6689 13.4583 22.6667C11.0161 22.6667 8.67396 21.7536 6.94706 20.1283C5.22016 18.5029 4.25 16.2985 4.25 14C4.25 11.7015 5.22016 9.49705 6.94706 7.87174C8.67396 6.24642 11.0161 5.33333 13.4583 5.33333ZM13.4583 6.66666C11.3919 6.66666 9.41001 7.43928 7.94879 8.81455C6.48757 10.1898 5.66667 12.0551 5.66667 14C5.66667 15.9449 6.48757 17.8102 7.94879 19.1854C9.41001 20.5607 11.3919 21.3333 13.4583 21.3333C14.4815 21.3333 15.4947 21.1436 16.4401 20.7751C17.3854 20.4066 18.2444 19.8664 18.9679 19.1854C19.6914 18.5045 20.2653 17.6961 20.6569 16.8063C21.0485 15.9166 21.25 14.963 21.25 14C21.25 13.037 21.0485 12.0834 20.6569 11.1936C20.2653 10.3039 19.6914 9.49551 18.9679 8.81455C18.2444 8.13358 17.3854 7.59341 16.4401 7.22488C15.4947 6.85634 14.4815 6.66666 13.4583 6.66666Z" fill="black"/>
</svg>
