<svg width="174" height="37" viewBox="0 0 174 37" fill="none" xmlns="http://www.w3.org/2000/svg">
<path d="M92.8527 12.1087H99.3382L104.242 23H104.321L108.908 12.1087H114.919L107.247 28.1522H100.92L92.8527 12.1087Z" fill="black"/>
<path d="M69.4418 16.0217H63.51V21.3696C63.51 21.8261 63.5891 22.2174 63.6682 22.5435C63.7473 22.9348 63.9055 23.1957 64.0636 23.4565C64.3009 23.7174 64.6173 23.913 65.0127 24.0435C65.4082 24.1739 66.0409 24.2391 66.6736 24.2391C66.99 24.2391 67.5436 24.2391 68.0973 24.1739C68.6509 24.1087 69.1255 23.9783 69.4418 23.7826V27.8913C68.6509 28.087 67.9391 28.2174 67.1482 28.2826C66.3573 28.3478 65.5664 28.413 64.7755 28.413C63.6682 28.413 62.64 28.3478 61.6909 28.1522C60.7418 27.9565 59.9509 27.6957 59.2391 27.3043C58.5273 26.913 57.9736 26.3913 57.5782 25.8043C57.1827 25.2174 56.9455 24.4348 56.9455 23.587V16.0217H52.8327V12.0435H56.9455V7.28261H63.51V12.0435H69.4418C69.4418 12.1087 69.4418 16.0217 69.4418 16.0217Z" fill="black"/>
<path d="M71.0236 12.1087H77.1136V14.7174H77.1927C77.8254 13.6739 78.6164 12.9565 79.4864 12.5C80.3564 11.9783 81.4636 11.7826 82.8082 11.7826C83.1245 11.7826 83.52 11.7826 83.8364 11.7826C84.1527 11.7826 84.4691 11.8478 84.7854 11.913V16.413C84.3109 16.2826 83.9155 16.2174 83.52 16.1522C83.1245 16.087 82.65 16.087 82.2545 16.087C81.1473 16.087 80.1982 16.2174 79.5654 16.4783C78.9327 16.7391 78.3791 17.1304 78.0627 17.587C77.6673 18.0435 77.5091 18.6304 77.3509 19.2826C77.2718 19.9348 77.1927 20.6522 77.1927 21.4348V28.1522H71.1027L71.0236 12.1087Z" fill="black"/>
<path d="M86.2091 12.1087H92.1409V28.1522H86.2091V12.1087ZM85.9718 7.86956C85.9718 7.15217 86.2882 6.49999 86.9209 6.04347C87.5536 5.52173 88.2654 5.26086 89.1354 5.26086C90.0054 5.26086 90.7963 5.52173 91.35 6.04347C91.9827 6.56521 92.2991 7.15217 92.2991 7.86956C92.2991 8.58695 91.9827 9.23913 91.35 9.69565C90.7173 10.2174 90.0054 10.4783 89.1354 10.4783C88.2654 10.4783 87.4745 10.2174 86.9209 9.69565C86.2882 9.17391 85.9718 8.58695 85.9718 7.86956Z" fill="black"/>
<path d="M125.043 21.1739C124.568 21.1739 124.015 21.1739 123.382 21.1739C122.67 21.2391 122.037 21.3043 121.405 21.4348C120.772 21.5652 120.218 21.8261 119.823 22.087C119.348 22.413 119.19 22.8043 119.19 23.3913C119.19 23.9783 119.506 24.4348 120.139 24.6957C120.772 24.9565 121.405 25.1522 122.037 25.1522C122.591 25.1522 123.224 25.087 123.698 24.9565C124.252 24.8261 124.726 24.6304 125.122 24.3696C125.517 24.1087 125.913 23.8478 126.15 23.4565C126.387 23.0652 126.545 22.6739 126.545 22.1522V21.1739H125.043ZM126.545 26.1957H126.466C125.834 26.9783 124.885 27.6304 123.777 28.0217C122.67 28.413 121.484 28.5435 120.297 28.5435C119.427 28.5435 118.557 28.413 117.687 28.2174C116.817 28.0217 116.105 27.6957 115.473 27.3043C114.84 26.913 114.365 26.3913 113.97 25.7391C113.575 25.1522 113.416 24.4348 113.416 23.587C113.416 22.6739 113.654 21.8913 114.049 21.2391C114.445 20.587 114.998 20.0652 115.71 19.6739C116.422 19.2826 117.213 18.9565 118.162 18.6957C119.032 18.4348 119.981 18.3043 121.009 18.1739C121.958 18.0435 122.986 17.9783 123.935 17.9783C124.885 17.9783 125.834 17.913 126.625 17.913C126.625 17.0652 126.229 16.3478 125.517 15.8261C124.726 15.3043 123.856 15.0435 122.828 15.0435C121.879 15.0435 120.93 15.2391 120.139 15.5652C119.348 15.8913 118.636 16.3478 118.004 16.9348L114.84 14.2609C115.947 13.413 117.292 12.7609 118.715 12.3043C120.218 11.8478 121.721 11.6522 123.382 11.6522C125.122 11.6522 126.545 11.8478 127.732 12.1739C128.839 12.5652 129.788 13.087 130.421 13.7391C131.133 14.4565 131.528 15.3043 131.845 16.3478C132.161 17.3913 132.24 18.5652 132.24 19.8696V28.0217H126.545V26.1957Z" fill="black"/>
<path d="M159.922 20.1304C159.922 21.3043 160.317 22.2826 161.029 23.0652C161.82 23.7826 162.848 24.1739 164.193 24.1739C165.537 24.1739 166.645 23.7826 167.356 23.0652C168.147 22.3478 168.464 21.3696 168.464 20.1304C168.464 18.8913 168.068 17.9783 167.356 17.1957C166.565 16.4783 165.537 16.087 164.193 16.087C162.848 16.087 161.741 16.4783 161.029 17.1957C160.317 17.913 159.922 18.8913 159.922 20.1304ZM154.465 20.1304C154.465 18.8261 154.702 17.7174 155.255 16.6739C155.73 15.6304 156.442 14.7826 157.312 14C158.182 13.2826 159.21 12.6957 160.396 12.3043C161.583 11.913 162.848 11.7174 164.193 11.7174C165.537 11.7174 166.803 11.913 167.989 12.3043C169.175 12.6957 170.204 13.2826 171.074 14C171.944 14.7174 172.655 15.6304 173.13 16.6739C173.605 17.7174 173.921 18.8261 173.921 20.1304C173.921 21.4348 173.684 22.5435 173.13 23.587C172.655 24.6304 171.944 25.4783 171.074 26.2609C170.204 26.9783 169.175 27.5652 167.989 27.9565C166.803 28.3478 165.537 28.5435 164.193 28.5435C162.848 28.5435 161.583 28.3478 160.396 27.9565C159.21 27.5652 158.182 26.9783 157.312 26.2609C156.442 25.5435 155.73 24.6304 155.255 23.587C154.781 22.5435 154.465 21.3696 154.465 20.1304Z" fill="black"/>
<path d="M148.137 12.0435V14.1957H148.058C147.979 14.0652 147.821 13.8696 147.346 13.6087C146.793 13.2174 146.397 13.0217 145.844 12.7609C145.29 12.5 144.657 12.3043 143.945 12.1087C143.234 11.9783 142.364 11.8478 141.494 11.8478C140.07 11.8478 138.805 12.1739 137.776 12.6304C136.669 13.087 135.878 13.6087 135.166 14.3913C134.455 15.1739 134.059 15.9565 133.664 17C133.347 18.0435 133.268 19.2174 133.268 20.2609C133.268 21.5 133.505 22.6087 133.822 23.6522C134.217 24.6957 134.771 25.6087 135.483 26.3261C136.274 27.1087 137.144 27.5 138.33 27.8913C139.516 28.2826 140.782 28.4783 142.205 28.413C143.155 28.413 144.025 28.2174 145.053 27.8913C146.318 27.5 147.188 26.7826 147.505 26.3261H147.584V27.8913C147.584 29.0652 147.267 29.9783 146.397 30.6957C145.527 31.413 144.262 31.8043 142.443 31.8043C141.177 31.8043 140.465 31.8043 139.2 31.5435C138.093 31.2826 136.748 30.8913 135.72 30.2391L132.794 33.7609C134.375 34.6739 135.72 35.2609 137.46 35.6522C139.121 36.0435 140.861 36.1087 142.601 36.1087C146.397 36.1087 149.086 35.3261 150.905 33.7609C152.725 32.1957 153.515 29.913 153.515 26.8478V12.0435H148.137ZM146.714 23.0652C145.923 23.7826 144.895 24.1739 143.471 24.1739C142.126 24.1739 141.019 23.7826 140.228 23.0652C139.437 22.3478 139.121 21.3696 139.121 20.1304C139.121 18.8913 139.516 17.913 140.228 17.1957C141.019 16.4783 142.047 16.087 143.471 16.087C144.895 16.087 145.923 16.4783 146.714 17.1957C147.505 17.913 147.821 18.9565 147.821 20.1304C147.821 21.3043 147.425 22.3478 146.714 23.0652Z" fill="black"/>
<path d="M42.63 18.1087C42.3927 17.2609 42.1555 16.4783 41.9182 15.8261C41.2855 14.1304 40.3364 12.6304 39.4664 11.2609C39.0709 10.7391 38.5173 9.95652 38.4382 9.95652C37.9636 9.36957 37.41 8.78261 36.9355 8.32609C35.8282 7.28261 33.93 7.08696 32.5855 7.93478C31.2409 8.78261 31.0036 10.413 32.1109 11.5217C33.2973 12.7609 34.0091 13.8044 34.8791 15.3044C35.2745 15.9565 36.0655 17.587 36.3818 19.4783C36.6982 21.1087 36.9355 24.5652 34.7209 27.2391C34.0091 28.087 32.3482 30.0435 28.8682 30.5652H28.7891C28.5518 30.5652 28.3936 30.6304 28.1564 30.6304C27.84 30.6304 27.5236 30.6957 27.2073 30.6957C23.5691 30.7609 19.6936 29.7174 17.0045 28.5435C14.9482 27.6304 12.2591 26.1957 10.2027 23.913C9.64909 23.3261 9.09546 22.6087 8.7 21.8913C8.22545 21.1087 7.83 20.2609 7.59273 19.2826C7.27636 17.9783 7.03909 14.6522 9.33273 11.8478C11.8636 8.84783 14.79 6.89131 21.5127 6.82609C23.6482 6.82609 25.3882 5.84783 25.6255 4.08696C25.8627 2.26087 24.4391 0.760872 22.0664 0.500003C21.2755 0.434785 20.4845 0.369568 19.6145 0.369568C19.6145 0.369568 18.5073 0.369568 16.8464 0.630437C16.1345 0.760872 15.2645 0.891307 14.3945 1.08696C12.3382 1.80435 9.25364 3.1087 6.40636 5.39131C5.22 6.36957 4.03364 7.47826 3.08455 8.78261C1.81909 10.4783 -1.10727 14.9783 0.553637 20.7826C2.21455 26.5217 7.11818 30.4348 10.9936 32.5217C17.2418 35.913 23.4109 36.6957 27.6818 36.4348C34.0882 36.1087 38.3591 32.9783 40.4155 30.2391C41.6809 28.6087 42.2345 27.0435 42.4718 26.3913C42.5509 26.1957 42.5509 26.0652 42.5509 26.0652C42.7091 25.6087 42.8673 24.7609 42.9464 24.4348C43.3418 22.2174 43.1045 20 42.63 18.1087Z" fill="black"/>
</svg>
