<svg width="148" height="43" viewBox="0 0 148 43" fill="none" xmlns="http://www.w3.org/2000/svg">
<path d="M78.0012 10.8038C78.0012 12.3534 76.6604 13.6016 74.996 13.6016C73.3315 13.6016 71.9907 12.3534 71.9907 10.8038C71.9907 9.25425 73.2853 8.00601 74.996 8.00601C76.7066 8.04905 78.0012 9.2973 78.0012 10.8038ZM65.6104 16.4424C65.6104 16.7007 65.6104 17.1311 65.6104 17.1311C65.6104 17.1311 64.1771 15.4094 61.1257 15.4094C56.0861 15.4094 52.1562 18.982 52.1562 23.9319C52.1562 28.8388 56.0399 32.4545 61.1257 32.4545C64.2234 32.4545 65.6104 30.6897 65.6104 30.6897V31.4214C65.6104 31.7658 65.8878 32.024 66.2577 32.024H70.0027V15.8398C70.0027 15.8398 66.5813 15.8398 66.2577 15.8398C65.8878 15.8398 65.6104 16.1411 65.6104 16.4424ZM65.6104 26.8158C64.9169 27.7628 63.5298 28.5806 61.8654 28.5806C58.9064 28.5806 56.6409 26.8589 56.6409 23.9319C56.6409 21.005 58.9064 19.2833 61.8654 19.2833C63.4836 19.2833 64.9631 20.1441 65.6104 21.048V26.8158ZM72.7767 15.8398H77.2152V32.024H72.7767V15.8398ZM139.077 15.4094C136.025 15.4094 134.592 17.1311 134.592 17.1311V8.04905H130.154V32.024C130.154 32.024 133.575 32.024 133.899 32.024C134.268 32.024 134.546 31.7227 134.546 31.4214V30.6897C134.546 30.6897 135.979 32.4545 139.031 32.4545C144.07 32.4545 148 28.8388 148 23.9319C148 19.025 144.07 15.4094 139.077 15.4094ZM138.337 28.5375C136.626 28.5375 135.286 27.7197 134.592 26.7728V21.005C135.286 20.1441 136.765 19.2402 138.337 19.2402C141.296 19.2402 143.562 20.962 143.562 23.8889C143.562 26.8158 141.296 28.5375 138.337 28.5375ZM127.842 22.4254V32.0671H123.403V22.8989C123.403 20.2302 122.479 19.1542 119.982 19.1542C118.641 19.1542 117.254 19.7998 116.376 20.7467V32.024H111.937V15.8398H115.451C115.821 15.8398 116.098 16.1411 116.098 16.4424V17.1311C117.393 15.8829 119.104 15.4094 120.814 15.4094C122.756 15.4094 124.374 15.9259 125.669 16.959C127.241 18.1642 127.842 19.7137 127.842 22.4254ZM101.165 15.4094C98.1131 15.4094 96.6799 17.1311 96.6799 17.1311V8.04905H92.2414V32.024C92.2414 32.024 95.6627 32.024 95.9864 32.024C96.3562 32.024 96.6336 31.7227 96.6336 31.4214V30.6897C96.6336 30.6897 98.0669 32.4545 101.118 32.4545C106.158 32.4545 110.088 28.8388 110.088 23.9319C110.134 19.025 106.204 15.4094 101.165 15.4094ZM100.425 28.5375C98.7142 28.5375 97.3734 27.7197 96.6799 26.7728V21.005C97.3734 20.1441 98.8529 19.2402 100.425 19.2402C103.384 19.2402 105.649 20.962 105.649 23.8889C105.649 26.8158 103.384 28.5375 100.425 28.5375ZM88.4039 15.4094C89.7447 15.4094 90.4382 15.6246 90.4382 15.6246V19.4555C90.4382 19.4555 86.7395 18.2933 84.4278 20.7467V32.0671H79.9893V15.8398C79.9893 15.8398 83.4106 15.8398 83.7343 15.8398C84.1041 15.8398 84.3815 16.1411 84.3815 16.4424V17.1311C85.2138 16.2272 87.0169 15.4094 88.4039 15.4094ZM42.3083 30.5606C42.0771 30.044 41.8459 29.4845 41.6148 29.011C41.2449 28.2362 40.875 27.5045 40.5514 26.8158L40.5051 26.7728C37.315 20.3163 33.8936 13.7738 30.2873 7.31732L30.1486 7.05906C29.7788 6.41341 29.4089 5.72472 29.039 5.03604C28.5767 4.26126 28.1143 3.44344 27.3746 2.66867C25.8951 0.946947 23.7683 0 21.5028 0C19.1911 0 17.1106 0.946947 15.5848 2.58258C14.8913 3.35736 14.3827 4.17518 13.9204 4.94995C13.5505 5.63864 13.1806 6.32733 12.8108 6.97297L12.6721 7.23123C9.11202 13.6877 5.64444 20.2302 2.45427 26.6867L2.40804 26.7728C2.0844 27.4615 1.71452 28.1932 1.34465 28.968C1.11348 29.4414 0.882305 29.958 0.651134 30.5175C0.0500872 32.1101 -0.13485 33.6166 0.0963216 35.1662C0.604899 38.3944 2.91662 41.1061 6.10679 42.3113C7.30888 42.7848 8.55721 43 9.85177 43C10.2216 43 10.684 42.957 11.0539 42.9139C12.5796 42.7417 14.1516 42.2683 15.6773 41.4505C17.5729 40.4605 19.376 39.04 21.4104 36.974C23.4447 39.04 25.294 40.4605 27.1434 41.4505C28.6691 42.2683 30.2411 42.7417 31.7668 42.9139C32.1367 42.957 32.5991 43 32.9689 43C34.2635 43 35.5581 42.7848 36.7139 42.3113C39.9503 41.1061 42.2158 38.3513 42.7244 35.1662C43.0943 33.6597 42.9093 32.1532 42.3083 30.5606ZM21.4566 32.7988C18.9599 29.8719 17.3417 27.1171 16.7869 24.7928C16.5557 23.8028 16.5095 22.9419 16.6482 22.1672C16.7407 21.4785 17.0181 20.8759 17.388 20.3594C18.2664 19.1972 19.7459 18.4655 21.4566 18.4655C23.1673 18.4655 24.693 19.1542 25.5252 20.3594C25.8951 20.8759 26.1725 21.4785 26.265 22.1672C26.4037 22.9419 26.3574 23.8458 26.1263 24.7928C25.5714 27.0741 23.9532 29.8288 21.4566 32.7988ZM39.9041 34.8218C39.5805 37.0601 37.9622 38.997 35.6968 39.8579C34.5871 40.2883 33.3851 40.4174 32.183 40.2883C31.0271 40.1592 29.8712 39.8148 28.6691 39.1692C27.0047 38.3083 25.3403 36.974 23.3984 34.994C26.4499 31.5075 28.2993 28.3223 28.9928 25.4815C29.3164 24.1471 29.3627 22.9419 29.224 21.8228C29.039 20.7467 28.6229 19.7568 27.9756 18.8959C26.5424 16.959 24.1382 15.8398 21.4566 15.8398C18.775 15.8398 16.3708 17.002 14.9375 18.8959C14.2903 19.7568 13.8742 20.7467 13.6892 21.8228C13.5043 22.9419 13.5505 24.1902 13.9204 25.4815C14.6139 28.3223 16.5095 31.5506 19.5147 35.037C17.6191 37.017 15.9085 38.3513 14.244 39.2122C13.0419 39.8579 11.8861 40.2022 10.7302 40.3313C9.48189 40.4605 8.2798 40.2883 7.21641 39.9009C4.95093 39.04 3.33273 37.1031 3.00909 34.8649C2.87038 33.7888 2.96285 32.7127 3.42519 31.5075C3.5639 31.0771 3.79507 30.6466 4.02624 30.1301C4.34988 29.4414 4.71976 28.7097 5.08963 27.978L5.13587 27.8919C8.32604 21.4785 11.7474 14.9359 15.3074 8.56557L15.4461 8.30731C15.816 7.66166 16.1859 6.97297 16.5557 6.32733C16.9256 5.63864 17.3417 4.99299 17.8503 4.43343C18.8212 3.4004 20.1158 2.84084 21.5491 2.84084C22.9823 2.84084 24.2769 3.4004 25.2478 4.43343C25.7564 4.99299 26.1725 5.63864 26.5424 6.32733C26.9122 6.97297 27.2821 7.66166 27.652 8.30731L27.7907 8.56557C31.3045 14.979 34.7258 21.5215 37.916 27.9349V27.978C38.2859 28.6667 38.6095 29.4414 38.9794 30.1301C39.2106 30.6466 39.4417 31.0771 39.5805 31.5075C39.9503 32.6266 40.089 33.7027 39.9041 34.8218Z" fill="black"/>
</svg>
