<svg width="154" height="25" viewBox="0 0 154 25" fill="none" xmlns="http://www.w3.org/2000/svg">
<g clip-path="url(#clip0_2_3)">
<rect width="154" height="25" fill="white"/>
<path d="M60.4531 2.26701C60.4531 0.964927 61.5292 -0.0271358 62.7953 -0.0271358C64.0613 -0.0271358 65.1374 1.02693 65.1374 2.26701C65.1374 3.50709 64.0613 4.56116 62.7953 4.56116C61.4659 4.56116 60.4531 3.50709 60.4531 2.26701Z" fill="black"/>
<path d="M97.4212 17.52C97.4212 16.2179 98.4973 15.2259 99.7633 15.2259C101.029 15.2259 102.105 16.2799 102.105 17.52C102.105 18.7601 101.029 19.8141 99.7633 19.8141C98.434 19.8141 97.4212 18.8221 97.4212 17.52Z" fill="#020202"/>
<path d="M22.029 16.5279C20.0034 16.5279 18.6108 14.9778 18.6108 12.7457C18.6108 10.5136 20.0034 8.96345 22.029 8.96345C24.0547 8.96345 25.4473 10.5136 25.4473 12.7457C25.4473 15.0398 24.0547 16.5279 22.029 16.5279ZM22.029 5.55324C17.7878 5.55324 14.6861 8.59143 14.6861 12.6837C14.6861 16.776 17.7878 19.8141 22.029 19.8141C26.3335 19.8141 29.4353 16.776 29.4353 12.6837C29.4353 8.59143 26.2702 5.55324 22.029 5.55324Z" fill="black"/>
<path d="M55.8954 13.1177C55.7055 12.8077 55.5156 12.5597 55.3257 12.3737L55.1991 12.2497L55.3257 12.1256C55.5156 11.9396 55.7055 11.6916 55.8954 11.3816L59.6302 5.92525H55.0725L52.2239 10.2035C52.034 10.4515 51.7175 10.5755 51.2744 10.5755H50.6414V2.45303C50.6414 0.840927 49.6286 0.592911 48.4891 0.592911H46.5901V19.7521H50.6414V13.9858H51.0212C51.4643 13.9858 51.7808 14.0478 51.9707 14.2958L54.1863 18.4501C54.8193 19.5661 55.4523 19.7521 56.5917 19.7521H59.6935L57.3513 16.0319L55.8954 13.1177Z" fill="black"/>
<path d="M75.5822 5.55323C73.4932 5.55323 72.2272 6.42128 71.4676 7.22733L71.2143 7.47535L71.1511 7.16533C70.9612 6.35928 70.2015 5.92525 69.1254 5.92525H67.2896V19.7521H71.341V13.3037C71.341 12.6837 71.4043 12.1256 71.5942 11.6296C72.0373 10.1415 73.3033 9.21146 74.8225 9.21146C76.0886 9.21146 76.595 9.8315 76.595 11.5676V17.582C76.595 19.0081 77.2913 19.6901 78.7472 19.6901H80.6463V10.8856C80.583 7.41335 78.8738 5.55323 75.5822 5.55323Z" fill="black"/>
<path d="M62.8585 5.86325H60.9595V16.5279V19.6901H62.9852H63.0485H63.998H64.9475V7.97139C64.9475 6.5453 64.2512 5.86325 62.8585 5.86325Z" fill="black"/>
<path d="M37.7911 16.5279C35.7655 16.5279 34.3728 14.9778 34.3728 12.7457C34.3728 10.5135 35.7655 8.96345 37.7911 8.96345C39.8168 8.96345 41.2094 10.5135 41.2094 12.7457C41.2727 15.0398 39.8801 16.5279 37.7911 16.5279ZM37.7911 5.55323C33.5499 5.55323 30.4482 8.59142 30.4482 12.6837C30.4482 16.7759 33.5499 19.8761 37.7911 19.8761C42.0956 19.8761 45.1974 16.8379 45.1974 12.7457C45.1974 8.65343 42.0956 5.55323 37.7911 5.55323Z" fill="black"/>
<path d="M124.071 16.5279C122.046 16.5279 120.653 14.9778 120.653 12.7457C120.653 10.5135 122.046 8.96345 124.071 8.96345C126.097 8.96345 127.489 10.5135 127.489 12.7457C127.489 15.0398 126.097 16.5279 124.071 16.5279ZM124.071 5.55323C119.83 5.55323 116.728 8.59143 116.728 12.6837C116.728 16.7759 119.83 19.8141 124.071 19.8141C128.312 19.8761 131.477 16.9 131.477 12.7457C131.477 8.59142 128.312 5.55323 124.071 5.55323Z" fill="#020202"/>
<path d="M89.0654 15.9699C86.8499 15.9699 86.0902 14.1098 86.0902 12.3117C86.0902 11.5056 86.2802 9.02544 88.8755 9.02544C90.1416 9.02544 91.8507 9.39747 91.8507 12.4357C91.8507 15.3498 90.3315 15.9699 89.0654 15.9699ZM93.9397 5.80124C93.18 5.80124 92.6103 6.11126 92.2938 6.66929L92.1672 6.85531L91.9773 6.66929C91.3443 6.11126 90.1416 5.49122 88.2425 5.49122C84.5077 5.49122 81.9756 8.2814 81.9756 12.3737C81.9756 16.4659 84.571 19.3801 88.3691 19.3801C89.6352 19.3801 90.648 19.0701 91.4709 18.5121L91.7874 18.264V18.6361C91.7874 20.4962 90.5847 21.4882 88.3691 21.4882C87.293 21.4882 86.3434 21.2402 85.6471 20.9922C84.8242 20.7442 84.3178 20.9302 83.938 21.7983L83.6215 22.5423L83.1784 23.6584L83.4316 23.7824C84.8242 24.5264 86.66 24.9605 88.3691 24.9605C91.7874 24.9605 95.7754 23.2244 95.7754 18.388V5.67723L93.9397 5.80124Z" fill="black"/>
<path d="M7.02674 16.4039H3.73505V12.5597C3.73505 11.7536 4.05154 11.3196 4.74786 11.1956H6.96341C8.54595 11.1956 9.5588 12.1877 9.5588 13.7998C9.6221 15.4119 8.67258 16.4039 7.02674 16.4039ZM3.73505 6.04926V5.05719C3.73505 4.18914 4.11484 3.75511 4.93776 3.69311H6.58362C8.03956 3.69311 8.86246 4.56116 8.86246 5.92525C8.86246 6.97932 8.29275 8.2814 6.64691 8.2814H3.67173L3.73505 6.04926ZM11.2046 9.89351L10.6349 9.58349L11.1413 9.14946C11.7111 8.65343 12.7239 7.47535 12.7239 5.55323C12.7239 2.51503 10.3184 0.592911 6.64691 0.592911H2.46902H1.96262C0.886489 0.654913 0.000244141 1.52297 0.000244141 2.57704V19.6281H1.96262H6.77352C10.8881 19.6281 13.5468 17.458 13.5468 14.0478C13.4835 12.2497 12.6606 10.6376 11.2046 9.89351Z" fill="black"/>
<path d="M149.392 5.61524C147.746 5.61524 146.1 6.35929 145.087 7.66137L144.771 8.03339L144.518 7.59937C143.758 6.29728 142.492 5.61524 140.719 5.61524C138.82 5.61524 137.618 6.6073 136.985 7.22734L136.605 7.66137L136.478 7.10333C136.288 6.35929 135.592 5.92526 134.516 5.92526H132.807V19.6901H136.668V13.6138C136.668 13.0557 136.731 12.5597 136.858 12.0016C137.238 10.5136 138.251 8.96345 139.897 9.08746C140.973 9.21147 141.479 9.95552 141.479 11.5056V19.6901H145.34V13.6138C145.34 12.9317 145.404 12.4357 145.53 11.9396C145.847 10.5136 146.923 9.08746 148.506 9.08746C149.708 9.08746 150.151 9.7695 150.151 11.5056V17.644C150.151 19.0081 150.784 19.6281 152.177 19.6281H154.013V10.8236C154.076 7.35135 152.557 5.61524 149.392 5.61524Z" fill="#020202"/>
<path d="M114.449 14.9158C114.449 14.9158 112.803 16.6519 110.588 16.6519C108.626 16.6519 106.6 15.4739 106.6 12.8077C106.6 10.5135 108.182 8.90144 110.398 8.90144C111.094 8.90144 111.917 9.14946 112.044 9.58349V9.64549C112.36 10.6376 113.247 10.6376 113.436 10.6376H115.525V8.83944C115.525 6.48329 112.424 5.61523 110.335 5.61523C105.904 5.61523 102.675 8.65343 102.675 12.8077C102.675 16.962 105.84 20.0002 110.271 20.0002C114.07 20.0002 116.158 17.52 116.158 17.52L116.285 17.396L114.639 14.6678L114.449 14.9158Z" fill="#020202"/>
</g>
<defs>
<clipPath id="clip0_2_3">
<rect width="154" height="25" fill="white"/>
</clipPath>
</defs>
</svg>
