<svg width="174" height="43" viewBox="0 0 174 43" fill="none" xmlns="http://www.w3.org/2000/svg">
<path fill-rule="evenodd" clip-rule="evenodd" d="M8.29449 0C9.19398 11.4491 0 15.3908 0 25.4751C0 32.3249 4.52547 38.1713 13.2712 38.2222C22.0169 38.2732 26.5424 31.1925 26.5424 23.959C26.5424 17.364 23.5018 11.145 17.7657 7.27815C19.1282 11.43 17.3145 15.222 15.5524 16.5279C15.6556 11.2134 13.8935 3.32693 8.29449 0ZM15.2412 20.7037C20.7783 27.0566 17.3779 35.037 12.9306 35.037C10.2247 35.037 8.83271 33.0224 8.84746 30.9329C8.87548 27.0581 12.8834 27.055 15.2412 20.7037Z" fill="black"/>
<path d="M59.7806 28H56.0072L54.5072 24.0977H47.64L46.222 28H42.5424L49.2338 10.8203H52.9017L59.7806 28ZM53.3939 21.2031L51.0267 14.8281L48.7064 21.2031H53.3939ZM68.8158 24.0391L72.097 24.5898C71.6752 25.793 71.0072 26.7109 70.0931 27.3438C69.1869 27.9688 68.0502 28.2812 66.683 28.2812C64.5189 28.2812 62.9174 27.5742 61.8783 26.1602C61.058 25.0273 60.6478 23.5977 60.6478 21.8711C60.6478 19.8086 61.1869 18.1953 62.265 17.0312C63.3431 15.8594 64.7064 15.2734 66.3549 15.2734C68.2064 15.2734 69.6674 15.8867 70.7377 17.1133C71.808 18.332 72.3197 20.2031 72.2728 22.7266H64.0228C64.0463 23.7031 64.3119 24.4648 64.8197 25.0117C65.3275 25.5508 65.9603 25.8203 66.7181 25.8203C67.2338 25.8203 67.6674 25.6797 68.0189 25.3984C68.3705 25.1172 68.6361 24.6641 68.8158 24.0391ZM69.0033 20.7109C68.9799 19.7578 68.7338 19.0352 68.265 18.543C67.7963 18.043 67.226 17.793 66.5541 17.793C65.8353 17.793 65.2416 18.0547 64.7728 18.5781C64.3041 19.1016 64.0736 19.8125 64.0814 20.7109H69.0033ZM78.1205 28H74.8275V15.5547H77.8861V17.3242C78.4095 16.4883 78.8783 15.9375 79.2924 15.6719C79.7142 15.4062 80.1908 15.2734 80.722 15.2734C81.472 15.2734 82.1947 15.4805 82.89 15.8945L81.8705 18.7656C81.3158 18.4062 80.8002 18.2266 80.3236 18.2266C79.8627 18.2266 79.472 18.3555 79.1517 18.6133C78.8314 18.8633 78.5775 19.3203 78.39 19.9844C78.2103 20.6484 78.1205 22.0391 78.1205 24.1562V28ZM83.558 21.6016C83.558 20.5078 83.8275 19.4492 84.3666 18.4258C84.9056 17.4023 85.6674 16.6211 86.6517 16.082C87.6439 15.543 88.7494 15.2734 89.9681 15.2734C91.851 15.2734 93.3939 15.8867 94.597 17.1133C95.8002 18.332 96.4017 19.875 96.4017 21.7422C96.4017 23.625 95.7924 25.1875 94.5736 26.4297C93.3627 27.6641 91.8353 28.2812 89.9916 28.2812C88.851 28.2812 87.7611 28.0234 86.722 27.5078C85.6908 26.9922 84.9056 26.2383 84.3666 25.2461C83.8275 24.2461 83.558 23.0312 83.558 21.6016ZM86.933 21.7773C86.933 23.0117 87.226 23.957 87.8119 24.6133C88.3978 25.2695 89.1205 25.5977 89.9799 25.5977C90.8392 25.5977 91.558 25.2695 92.1361 24.6133C92.722 23.957 93.015 23.0039 93.015 21.7539C93.015 20.5352 92.722 19.5977 92.1361 18.9414C91.558 18.2852 90.8392 17.957 89.9799 17.957C89.1205 17.957 88.3978 18.2852 87.8119 18.9414C87.226 19.5977 86.933 20.543 86.933 21.7773ZM110.007 21.6836L113.37 22.75C112.855 24.625 111.995 26.0195 110.792 26.9336C109.597 27.8398 108.078 28.293 106.234 28.293C103.953 28.293 102.078 27.5156 100.609 25.9609C99.14 24.3984 98.4056 22.2656 98.4056 19.5625C98.4056 16.7031 99.1439 14.4844 100.62 12.9062C102.097 11.3203 104.038 10.5273 106.445 10.5273C108.546 10.5273 110.253 11.1484 111.566 12.3906C112.347 13.125 112.933 14.1797 113.324 15.5547L109.89 16.375C109.687 15.4844 109.261 14.7812 108.613 14.2656C107.972 13.75 107.191 13.4922 106.269 13.4922C104.995 13.4922 103.96 13.9492 103.163 14.8633C102.374 15.7773 101.98 17.2578 101.98 19.3047C101.98 21.4766 102.37 23.0234 103.152 23.9453C103.933 24.8672 104.949 25.3281 106.199 25.3281C107.12 25.3281 107.913 25.0352 108.578 24.4492C109.242 23.8633 109.718 22.9414 110.007 21.6836ZM118.796 19.3516L115.808 18.8125C116.144 17.6094 116.722 16.7188 117.542 16.1406C118.363 15.5625 119.581 15.2734 121.199 15.2734C122.667 15.2734 123.761 15.4492 124.48 15.8008C125.199 16.1445 125.703 16.5859 125.992 17.125C126.288 17.6562 126.437 18.6367 126.437 20.0664L126.402 23.9102C126.402 25.0039 126.453 25.8125 126.554 26.3359C126.663 26.8516 126.863 27.4062 127.152 28H123.894C123.808 27.7812 123.703 27.457 123.578 27.0273C123.523 26.832 123.484 26.7031 123.46 26.6406C122.898 27.1875 122.296 27.5977 121.656 27.8711C121.015 28.1445 120.331 28.2812 119.605 28.2812C118.324 28.2812 117.312 27.9336 116.57 27.2383C115.835 26.543 115.468 25.6641 115.468 24.6016C115.468 23.8984 115.636 23.2734 115.972 22.7266C116.308 22.1719 116.777 21.75 117.378 21.4609C117.988 21.1641 118.863 20.9062 120.003 20.6875C121.542 20.3984 122.609 20.1289 123.203 19.8789V19.5508C123.203 18.918 123.046 18.4688 122.734 18.2031C122.421 17.9297 121.831 17.793 120.964 17.793C120.378 17.793 119.921 17.9102 119.593 18.1445C119.265 18.3711 118.999 18.7734 118.796 19.3516ZM123.203 22.0234C122.781 22.1641 122.113 22.332 121.199 22.5273C120.285 22.7227 119.687 22.9141 119.406 23.1016C118.976 23.4062 118.761 23.793 118.761 24.2617C118.761 24.7227 118.933 25.1211 119.277 25.457C119.62 25.793 120.058 25.9609 120.589 25.9609C121.183 25.9609 121.749 25.7656 122.288 25.375C122.687 25.0781 122.949 24.7148 123.074 24.2852C123.16 24.0039 123.203 23.4688 123.203 22.6797V22.0234ZM129.449 15.5547H132.484V17.2539C133.57 15.9336 134.863 15.2734 136.363 15.2734C137.16 15.2734 137.851 15.4375 138.437 15.7656C139.023 16.0938 139.503 16.5898 139.878 17.2539C140.425 16.5898 141.015 16.0938 141.648 15.7656C142.281 15.4375 142.956 15.2734 143.675 15.2734C144.589 15.2734 145.363 15.4609 145.995 15.8359C146.628 16.2031 147.101 16.7461 147.413 17.4648C147.64 17.9961 147.753 18.8555 147.753 20.043V28H144.46V20.8867C144.46 19.6523 144.347 18.8555 144.12 18.4961C143.816 18.0273 143.347 17.793 142.714 17.793C142.253 17.793 141.82 17.9336 141.413 18.2148C141.007 18.4961 140.714 18.9102 140.535 19.457C140.355 19.9961 140.265 20.8516 140.265 22.0234V28H136.972V21.1797C136.972 19.9688 136.913 19.1875 136.796 18.8359C136.679 18.4844 136.495 18.2227 136.245 18.0508C136.003 17.8789 135.671 17.793 135.249 17.793C134.742 17.793 134.285 17.9297 133.878 18.2031C133.472 18.4766 133.179 18.8711 132.999 19.3867C132.828 19.9023 132.742 20.7578 132.742 21.9531V28H129.449V15.5547ZM150.953 15.5547H154.023V17.3828C154.421 16.7578 154.96 16.25 155.64 15.8594C156.32 15.4688 157.074 15.2734 157.902 15.2734C159.347 15.2734 160.574 15.8398 161.581 16.9727C162.589 18.1055 163.093 19.6836 163.093 21.707C163.093 23.7852 162.585 25.4023 161.57 26.5586C160.554 27.707 159.324 28.2812 157.878 28.2812C157.191 28.2812 156.566 28.1445 156.003 27.8711C155.449 27.5977 154.863 27.1289 154.245 26.4648V32.7344H150.953V15.5547ZM154.21 21.5664C154.21 22.9648 154.488 24 155.042 24.6719C155.597 25.3359 156.273 25.668 157.07 25.668C157.835 25.668 158.472 25.3633 158.98 24.7539C159.488 24.1367 159.742 23.1289 159.742 21.7305C159.742 20.4258 159.48 19.457 158.956 18.8242C158.433 18.1914 157.785 17.875 157.011 17.875C156.206 17.875 155.538 18.1875 155.007 18.8125C154.476 19.4297 154.21 20.3477 154.21 21.5664Z" fill="black"/>
</svg>
