<svg width="27" height="39" viewBox="0 0 27 39" fill="none" xmlns="http://www.w3.org/2000/svg">
<path fill-rule="evenodd" clip-rule="evenodd" d="M8.29449 0C9.19398 11.4491 0 15.3908 0 25.4751C0 32.3249 4.52547 38.1713 13.2712 38.2222C22.0169 38.2732 26.5424 31.1925 26.5424 23.959C26.5424 17.364 23.5018 11.145 17.7657 7.27815C19.1282 11.43 17.3145 15.222 15.5524 16.5279C15.6556 11.2134 13.8935 3.32693 8.29449 0ZM15.2412 20.7037C20.7783 27.0566 17.3779 35.037 12.9306 35.037C10.2247 35.037 8.83271 33.0224 8.84746 30.9329C8.87548 27.0581 12.8834 27.055 15.2412 20.7037Z" fill="white"/>
</svg>
